HIERARCHY
ROOT Hips
{
 OFFSET 0.000000 0.000000 0.000000
 CHANNELS 6 Xposition Yposition Zposition Yrotation Xrotation Zrotation
 JOINT Chest
 {
  OFFSET 0.000000 9.585900 0.002600
  CHANNELS 3 Yrotation Xrotation Zrotation
  JOINT Chest2
  {
   OFFSET 0.000000 9.601200 -0.005300
   CHANNELS 3 Yrotation Xrotation Zrotation
   JOINT Chest3
   {
    OFFSET 0.000000 9.561800 0.000000
    CHANNELS 3 Yrotation Xrotation Zrotation
    JOINT Chest4
    {
     OFFSET 0.000000 9.552100 0.000000
     CHANNELS 3 Yrotation Xrotation Zrotation
     JOINT Neck
     {
      OFFSET 0.000000 14.453000 0.000000
      CHANNELS 3 Yrotation Xrotation Zrotation
      JOINT Head
      {
       OFFSET 0.000000 8.936500 -0.011300
       CHANNELS 3 Yrotation Xrotation Zrotation
       End Site
       {
        OFFSET 0.000000 17.073600 -0.006000
       }
      }
     }
     JOINT RightCollar
     {
      OFFSET -2.921100 9.558500 0.000000
      CHANNELS 3 Yrotation Xrotation Zrotation
      JOINT RightShoulder
      {
       OFFSET -13.519700 0.000000 0.000000
       CHANNELS 3 Yrotation Xrotation Zrotation
       JOINT RightElbow
       {
        OFFSET 0.000000 -29.696600 0.000000
        CHANNELS 3 Yrotation Xrotation Zrotation
        JOINT RightWrist
        {
         OFFSET 0.000000 -24.004700 0.000000
         CHANNELS 3 Yrotation Xrotation Zrotation
         End Site
         {
          OFFSET 0.000000 -17.728500 0.000000
         }
        }
       }
      }
     }
     JOINT LeftCollar
     {
      OFFSET 2.921100 9.558500 0.000000
      CHANNELS 3 Yrotation Xrotation Zrotation
      JOINT LeftShoulder
      {
       OFFSET 13.519700 0.000000 0.000000
       CHANNELS 3 Yrotation Xrotation Zrotation
       JOINT LeftElbow
       {
        OFFSET 0.000000 -29.696600 0.000000
        CHANNELS 3 Yrotation Xrotation Zrotation
        JOINT LeftWrist
        {
         OFFSET 0.000000 -24.004700 0.000000
         CHANNELS 3 Yrotation Xrotation Zrotation
         End Site
         {
          OFFSET 0.000000 -17.728500 0.000000
         }
        }
       }
      }
     }
    }
   }
  }
 }
 JOINT RightHip
 {
  OFFSET -7.771700 -0.012900 -0.001300
  CHANNELS 3 Yrotation Xrotation Zrotation
  JOINT RightKnee
  {
   OFFSET 0.000000 -40.869800 0.001200
   CHANNELS 3 Yrotation Xrotation Zrotation
   JOINT RightAnkle
   {
    OFFSET 0.000000 -39.717900 0.002100
    CHANNELS 3 Yrotation Xrotation Zrotation
    JOINT RightToe
    {
     OFFSET 0.000000 -4.965400 11.033500
     CHANNELS 3 Yrotation Xrotation Zrotation
     End Site
     {
      OFFSET 0.000000 -1.423100 5.872300
     }
    }
   }
  }
 }
 JOINT LeftHip
 {
  OFFSET 7.771700 -0.012900 -0.001300
  CHANNELS 3 Yrotation Xrotation Zrotation
  JOINT LeftKnee
  {
   OFFSET 0.000000 -40.869800 0.001200
   CHANNELS 3 Yrotation Xrotation Zrotation
   JOINT LeftAnkle
   {
    OFFSET 0.000000 -39.717900 0.002100
    CHANNELS 3 Yrotation Xrotation Zrotation
    JOINT LeftToe
    {
     OFFSET 0.000000 -4.965400 11.033500
     CHANNELS 3 Yrotation Xrotation Zrotation
     End Site
     {
      OFFSET 0.000000 -1.423100 5.872300
     }
    }
   }
  }
 }
}
MOTION
Frames: 5
Frame Time: 0.008333
0.000000 85.388000 0.000000 0.000000 -5.767877 0.000000 0.000000 11.653817 0.000000 0.000000 -5.885947 0.000000 0.000000 -0.000000 0.000000 0.000000 -0.000000 0.000000 0.000000 12.528835 0.000000 0.000000 0.711642 0.000000 0.000000 -0.000000 0.000000 0.000000 0.000000 -90.000000 0.000000 -2.309062 0.000000 0.000000 2.309062 0.000000 0.000000 -0.000000 0.000000 0.000000 -0.000000 90.000000 0.000000 -2.309062 0.000000 0.000000 2.309062 0.000000 0.000000 8.520406 0.000000 0.000000 1.905762 0.000000 -0.000000 -4.658285 0.000000 0.000000 -0.000000 0.000000 0.000000 8.520406 0.000000 0.000000 1.905762 0.000000 -0.000000 -4.658285 0.000000 0.000000 -0.000000 0.000000
-15.843480 59.474165 31.609951 165.572637 -21.408508 3.273389 1.435203 9.999224 2.759734 0.068400 0.599775 0.142466 0.119162 1.035962 0.246533 1.210297 9.092933 2.260296 -0.998237 30.943727 -1.199516 -0.842252 9.069157 -1.111849 4.383148 1.706758 -1.687077 10.402601 -14.380389 -15.649136 19.834286 -40.634781 -10.110606 2.507719 7.857982 -38.596778 -6.293713 0.306104 -4.589417 4.550876 -7.840980 3.201786 -47.567897 -41.700713 35.759702 -8.112216 5.177178 13.414793 -11.410786 -49.899066 0.318968 -20.329433 72.361485 -17.280829 3.718608 -4.270656 -3.414751 -0.050350 0.123346 0.160144 17.044724 -47.518499 2.454608 21.404137 69.868264 17.678148 -18.965261 -13.184737 3.811162 0.292968 0.778199 1.026246
-15.862983 59.462447 31.613085 165.591048 -21.392131 3.360011 1.369934 9.920784 2.672117 0.066632 0.595743 0.142900 0.116142 1.029144 0.247399 1.187614 9.063553 2.273036 -0.975468 30.894565 -1.219406 -0.812093 9.002630 -1.138692 4.353957 1.744449 -1.669074 10.369468 -14.322298 -15.544100 19.822228 -40.745997 -10.139633 2.512065 7.852549 -38.570372 -6.235335 0.318442 -4.520119 4.579846 -7.709529 3.130259 -47.609035 -41.829255 35.737128 -8.067193 5.134481 13.364573 -11.280650 -49.938530 0.169082 -20.295740 72.363677 -17.253435 3.672842 -4.277281 -3.419134 -0.003463 0.121703 0.107056 17.439695 -47.550995 1.932895 21.215564 69.938430 17.437542 -18.927847 -13.249032 3.904013 0.081506 0.720803 1.002357
-15.871713 59.450268 31.617381 165.593594 -21.390329 3.385616 1.328162 9.859798 2.651427 0.065210 0.592351 0.143494 0.113598 1.023433 0.248441 1.168892 9.038503 2.286676 -0.956067 30.831698 -1.242113 -0.784958 8.917667 -1.167888 4.318826 1.779800 -1.655411 10.332296 -14.274190 -15.441689 19.820273 -40.851124 -10.165634 2.520632 7.850083 -38.537847 -6.191072 0.369990 -4.513607 4.630669 -7.600130 3.156212 -47.644328 -42.009896 35.691526 -8.023499 5.084737 13.309773 -11.128776 -49.950845 0.071262 -20.341457 72.358927 -17.261286 3.639817 -4.277342 -3.443980 0.003520 0.123276 0.115198 17.745138 -47.586938 1.503682 21.033008 69.991938 17.171703 -18.886866 -13.335565 3.979453 0.000382 0.702764 1.016675
-15.876024 59.438349 31.622446 165.585937 -21.395881 3.386446 1.316197 9.836417 2.656091 0.064673 0.590860 0.143867 0.091802 0.987872 0.256044 1.156445 9.019567 2.301797 -0.939363 30.754991 -1.267645 -0.760179 8.814120 -1.199601 4.281249 1.814919 -1.648416 10.284404 -14.237247 -15.338068 19.830687 -40.955110 -10.191814 2.540842 7.849523 -38.494824 -6.151416 0.416180 -4.510138 4.723913 -7.452447 3.230106 -47.706651 -42.256691 35.634936 -7.983706 5.029836 13.254541 -10.993834 -49.944634 0.006813 -20.414794 72.345271 -17.283242 3.649414 -4.282787 -3.550399 -0.027369 0.137402 0.217304 17.996193 -47.619006 1.113847 20.876229 70.023434 16.903950 -18.767069 -13.429581 4.045262 -0.008032 0.699687 1.043089
